<?xml version="1.0" encoding="UTF-8" standalone="no"?>
<!-- Created with Inkscape (http://www.inkscape.org/) -->

<svg
   xmlns:dc="http://purl.org/dc/elements/1.1/"
   xmlns:cc="http://creativecommons.org/ns#"
   xmlns:rdf="http://www.w3.org/1999/02/22-rdf-syntax-ns#"
   xmlns:svg="http://www.w3.org/2000/svg"
   xmlns="http://www.w3.org/2000/svg"
   xmlns:sodipodi="http://sodipodi.sourceforge.net/DTD/sodipodi-0.dtd"
   xmlns:inkscape="http://www.inkscape.org/namespaces/inkscape"
   width="135.31549mm"
   height="135.31549mm"
   viewBox="0 0 135.31549 135.31549"
   version="1.1"
   id="svg8"
   inkscape:version="0.92.4 (5da689c313, 2019-01-14)"
   sodipodi:docname="big_counter_icon.svg">
  <defs
     id="defs2" />
  <sodipodi:namedview
     id="base"
     pagecolor="#ffffff"
     bordercolor="#666666"
     borderopacity="1.0"
     inkscape:pageopacity="0.0"
     inkscape:pageshadow="2"
     inkscape:zoom="1.4"
     inkscape:cx="162.47566"
     inkscape:cy="218.58398"
     inkscape:document-units="mm"
     inkscape:current-layer="layer1"
     showgrid="false"
     inkscape:window-width="1920"
     inkscape:window-height="1027"
     inkscape:window-x="-8"
     inkscape:window-y="-8"
     inkscape:window-maximized="1"
     fit-margin-top="0"
     fit-margin-left="0"
     fit-margin-right="0"
     fit-margin-bottom="0" />
  <metadata
     id="metadata5">
    <rdf:RDF>
      <cc:Work
         rdf:about="">
        <dc:format>image/svg+xml</dc:format>
        <dc:type
           rdf:resource="http://purl.org/dc/dcmitype/StillImage" />
        <dc:title></dc:title>
      </cc:Work>
    </rdf:RDF>
  </metadata>
  <g
     inkscape:label="Layer 1"
     inkscape:groupmode="layer"
     id="layer1"
     transform="translate(-36.285706,-70.214279)">
    <circle
       style="fill:#040000;fill-opacity:1;stroke:none;stroke-width:0.23445749"
       id="path4536"
       cx="103.94345"
       cy="137.87202"
       r="67.657745"
       inkscape:export-xdpi="192.21001"
       inkscape:export-ydpi="192.21001" />
    <g
       aria-label="8"
       transform="matrix(4.4627112,0,0,4.1385332,-744.63097,-1202.0053)"
       style="font-style:normal;font-weight:normal;font-size:40px;line-height:1.25;font-family:sans-serif;letter-spacing:0px;word-spacing:0px;fill:#000000;fill-opacity:1;stroke:none"
       id="flowRoot3723">
      <path
         d="m 190.14773,309.17392 q 3.04,0 5.6,1.12 2.6,1.12 4.12,3.12 1.52,2 1.52,4.56 0,3.08 -2.16,5.36 1.32,1.12 2.04,2.64 0.72,1.48 0.72,3.2 0,2.56 -1.56,4.56 -1.56,2 -4.28,3.12 -2.68,1.12 -6,1.12 -3.32,0 -6.04,-1.12 -2.68,-1.12 -4.24,-3.12 -1.56,-2 -1.56,-4.56 0,-3.48 2.72,-5.84 -2.12,-2.32 -2.12,-5.36 0,-2.56 1.52,-4.56 1.52,-2 4.08,-3.12 2.6,-1.12 5.64,-1.12 z m 0,11.44 q 1.76,0 2.8,-0.76 1.04,-0.8 1.04,-1.96 0,-1.16 -1.04,-1.92 -1.04,-0.8 -2.8,-0.8 -1.76,0 -2.8,0.8 -1.04,0.76 -1.04,1.92 0,1.16 1.04,1.96 1.04,0.76 2.8,0.76 z m 0,11.36 q 2.12,0 3.28,-0.76 1.16,-0.76 1.16,-1.96 0,-1.2 -1.16,-1.96 -1.16,-0.76 -3.28,-0.76 -2.12,0 -3.28,0.76 -1.16,0.76 -1.16,1.96 0,1.2 1.16,1.96 1.16,0.76 3.28,0.76 z"
         style="font-style:normal;font-variant:normal;font-weight:bold;font-stretch:normal;font-family:Rubik;-inkscape-font-specification:'Rubik Bold';fill:#ffffff"
         id="path825"
         inkscape:connector-curvature="0" />
    </g>
  </g>
</svg>
