<?xml version="1.0" encoding="UTF-8" standalone="no"?>
<!-- Created with Inkscape (http://www.inkscape.org/) -->

<svg
   xmlns:dc="http://purl.org/dc/elements/1.1/"
   xmlns:cc="http://creativecommons.org/ns#"
   xmlns:rdf="http://www.w3.org/1999/02/22-rdf-syntax-ns#"
   xmlns:svg="http://www.w3.org/2000/svg"
   xmlns="http://www.w3.org/2000/svg"
   xmlns:sodipodi="http://sodipodi.sourceforge.net/DTD/sodipodi-0.dtd"
   xmlns:inkscape="http://www.inkscape.org/namespaces/inkscape"
   width="154.42552mm"
   height="40.960114mm"
   viewBox="0 0 154.42552 40.960114"
   version="1.1"
   id="svg8"
   inkscape:version="0.92.4 (5da689c313, 2019-01-14)"
   sodipodi:docname="zobyte_logo.svg">
  <defs
     id="defs2" />
  <sodipodi:namedview
     id="base"
     pagecolor="#ffffff"
     bordercolor="#666666"
     borderopacity="1.0"
     inkscape:pageopacity="0.0"
     inkscape:pageshadow="2"
     inkscape:zoom="0.7"
     inkscape:cx="451.10956"
     inkscape:cy="-91.521586"
     inkscape:document-units="mm"
     inkscape:current-layer="layer1"
     showgrid="false"
     inkscape:window-width="1920"
     inkscape:window-height="1027"
     inkscape:window-x="-8"
     inkscape:window-y="-8"
     inkscape:window-maximized="1"
     fit-margin-top="0"
     fit-margin-left="0"
     fit-margin-right="0"
     fit-margin-bottom="0" />
  <metadata
     id="metadata5">
    <rdf:RDF>
      <cc:Work
         rdf:about="">
        <dc:format>image/svg+xml</dc:format>
        <dc:type
           rdf:resource="http://purl.org/dc/dcmitype/StillImage" />
        <dc:title></dc:title>
      </cc:Work>
    </rdf:RDF>
  </metadata>
  <g
     inkscape:label="Layer 1"
     inkscape:groupmode="layer"
     id="layer1"
     transform="translate(-26.932608,-18.176268)">
    <rect
       style="fill:#ffffff;fill-opacity:1;stroke:#000000;stroke-width:3.86500001;stroke-miterlimit:4;stroke-dasharray:none;stroke-opacity:1;paint-order:normal"
       id="rect844"
       width="150.56052"
       height="37.095112"
       x="28.865108"
       y="20.108768"
       ry="0.93544233" />
    <path
       inkscape:connector-curvature="0"
       id="path823"
       style="font-style:normal;font-variant:normal;font-weight:normal;font-stretch:normal;font-size:40px;line-height:1.25;font-family:'Rubik Mono One';-inkscape-font-specification:'Rubik Mono One';letter-spacing:0px;word-spacing:0px;fill:#000000;fill-opacity:1;stroke:none;stroke-width:0.86031085"
       d="m 55.607382,44.153637 q 0.350109,0 0.604733,0.297653 0.254624,0.297653 0.254624,0.706926 v 5.618206 q 0,0.409273 -0.254624,0.706926 -0.254624,0.297653 -0.604733,0.297653 h -20.43361 q -0.350109,0 -0.604733,-0.297653 -0.254625,-0.297653 -0.254625,-0.706926 v -5.357759 q 0,-0.855754 0.477421,-1.302234 L 44.8495,33.363706 h -9.007339 q -0.350109,0 -0.604733,-0.297654 -0.254624,-0.297653 -0.254624,-0.706927 v -5.618199 q 0,-0.409274 0.254624,-0.706928 0.254624,-0.297653 0.604733,-0.297653 h 19.096832 q 0.350108,0 0.604733,0.297653 0.254624,0.297654 0.254624,0.706928 v 5.320546 q 0,0.781341 -0.413764,1.22782 l -9.930353,10.864345 z" />
    <path
       inkscape:connector-curvature="0"
       id="path825"
       style="font-style:normal;font-variant:normal;font-weight:normal;font-stretch:normal;font-size:40px;line-height:1.25;font-family:'Rubik Mono One';-inkscape-font-specification:'Rubik Mono One';letter-spacing:0px;word-spacing:0px;fill:#000000;fill-opacity:1;stroke:none;stroke-width:0.62215769"
       d="m 79.30932,42.242163 v 2.764224 q 0,2.33373 -1.366714,3.897103 -1.366713,1.563372 -3.58079,2.220442 -2.214076,0.657069 -5.220846,0.657069 -3.00677,0 -5.220846,-0.657069 -2.214076,-0.65707 -3.58079,-2.220442 -1.366714,-1.563373 -1.366714,-3.942418 v -2.673594 q 0,-3.421293 2.815431,-5.120608 2.842764,-1.699318 7.352919,-1.699318 4.510155,0 7.325586,1.699318 2.842764,1.699315 2.842764,5.075293 z M 66.352874,41.81167 v 3.625212 q 0,0.928959 0.738025,1.427427 0.76536,0.498466 2.050071,0.498466 1.284711,0 2.022736,-0.498466 0.76536,-0.521125 0.76536,-1.450086 v -3.579896 q 0,-0.928961 -0.76536,-1.427427 -0.738025,-0.521124 -2.022736,-0.521124 -1.284711,0 -2.050071,0.498467 -0.738025,0.498466 -0.738025,1.427427 z" />
    <path
       inkscape:connector-curvature="0"
       id="path827"
       style="font-style:normal;font-variant:normal;font-weight:normal;font-stretch:normal;font-size:40px;line-height:1.25;font-family:'Rubik Mono One';-inkscape-font-specification:'Rubik Mono One';letter-spacing:0px;word-spacing:0px;fill:#000000;fill-opacity:1;stroke:none;stroke-width:0.62215769"
       d="m 102.80227,46.796335 q 0,4.984666 -7.708273,4.984666 H 83.832275 q -0.300678,0 -0.519351,-0.181261 Q 83.09425,51.41848 83.09425,51.169247 V 36.532458 q 0,-0.249233 0.218674,-0.430494 0.218673,-0.18126 0.519351,-0.18126 h 10.98838 q 3.881461,0 5.712865,1.178193 1.85873,1.155534 1.85873,3.511921 v 0.06797 q 0,1.087564 -0.71069,1.857921 -0.71069,0.770357 -1.47605,0.974276 1.06604,0.271891 1.83139,1.200851 0.76537,0.906303 0.76537,2.084497 z M 90.20116,45.663457 v 2.220442 h 3.963466 q 0.628693,0 0.929371,-0.339863 0.328006,-0.362521 0.328006,-0.793016 v -0.02266 q 0,-0.430493 -0.355342,-0.747699 -0.328014,-0.317206 -0.902035,-0.317206 z m 4.482824,-4.101021 q 0.300678,-0.339864 0.300678,-0.7477 0,-0.407836 -0.300678,-0.702384 -0.273343,-0.294549 -0.820027,-0.294549 H 90.20116 v 2.061839 h 3.662797 q 0.546684,0 0.820027,-0.317206 z" />
    <path
       inkscape:connector-curvature="0"
       id="path829"
       style="font-style:normal;font-variant:normal;font-weight:normal;font-stretch:normal;font-size:40px;line-height:1.25;font-family:'Rubik Mono One';-inkscape-font-specification:'Rubik Mono One';letter-spacing:0px;word-spacing:0px;fill:#000000;fill-opacity:1;stroke:none;stroke-width:0.62215769"
       d="m 121.04703,35.920704 h 5.71286 q 0.24601,0 0.41002,0.158602 0.19133,0.135946 0.19133,0.294549 0,0.158603 -0.082,0.294549 l -6.88824,9.448204 v 5.052639 q 0,0.249233 -0.21867,0.430493 -0.21868,0.181261 -0.51936,0.181261 h -5.82219 q -0.30068,0 -0.51936,-0.181261 -0.21867,-0.18126 -0.21867,-0.430493 v -5.052639 l -6.8609,-9.448204 q -0.082,-0.135946 -0.082,-0.294549 0,-0.158603 0.16401,-0.294549 0.19134,-0.158602 0.43735,-0.158602 h 5.76753 q 0.76536,0 1.1207,0.521124 l 3.08878,4.486196 3.17078,-4.440881 q 0.41001,-0.566439 1.14803,-0.566439 z" />
    <path
       inkscape:connector-curvature="0"
       id="path831"
       style="font-style:normal;font-variant:normal;font-weight:normal;font-stretch:normal;font-size:40px;line-height:1.25;font-family:'Rubik Mono One';-inkscape-font-specification:'Rubik Mono One';letter-spacing:0px;word-spacing:0px;fill:#000000;fill-opacity:1;stroke:none;stroke-width:0.62215769"
       d="m 131.13251,35.920704 h 18.86065 q 0.30068,0 0.51935,0.18126 0.21867,0.181261 0.21867,0.430494 v 3.647866 q 0,0.249234 -0.21867,0.430494 -0.21867,0.181261 -0.51935,0.181261 h -5.87687 v 10.377168 q 0,0.249233 -0.21867,0.430493 -0.21868,0.181261 -0.51936,0.181261 h -5.63085 q -0.30068,0 -0.51936,-0.181261 -0.21867,-0.18126 -0.21867,-0.430493 V 40.792079 h -5.87687 q -0.30067,0 -0.51935,-0.181261 -0.21867,-0.18126 -0.21867,-0.430494 v -3.647866 q 0,-0.249233 0.21867,-0.430494 0.21868,-0.18126 0.51935,-0.18126 z" />
    <path
       inkscape:connector-curvature="0"
       id="path833"
       style="font-style:normal;font-variant:normal;font-weight:normal;font-stretch:normal;font-size:40px;line-height:1.25;font-family:'Rubik Mono One';-inkscape-font-specification:'Rubik Mono One';letter-spacing:0px;word-spacing:0px;fill:#000000;fill-opacity:1;stroke:none;stroke-width:0.62215769"
       d="m 162.10139,47.362775 h 10.90637 q 0.30068,0 0.51936,0.181261 0.21867,0.18126 0.21867,0.430493 v 3.194718 q 0,0.249233 -0.21867,0.430493 -0.21868,0.181261 -0.51936,0.181261 H 155.7325 q -0.30068,0 -0.51935,-0.181261 -0.21867,-0.18126 -0.21867,-0.430493 V 36.532458 q 0,-0.249233 0.21867,-0.430494 0.21867,-0.18126 0.51935,-0.18126 h 17.00192 q 0.30068,0 0.51935,0.18126 0.21867,0.181261 0.21867,0.430494 v 3.194715 q 0,0.249234 -0.21867,0.430494 -0.21867,0.181261 -0.51935,0.181261 h -10.63303 v 1.427427 h 9.12964 q 0.30068,0 0.51935,0.18126 0.21868,0.181261 0.21868,0.430494 v 2.945484 q 0,0.249234 -0.21868,0.430494 -0.21867,0.181261 -0.51935,0.181261 h -9.12964 z" />
    <rect
       style="fill:#040000;fill-opacity:1;stroke:none;stroke-width:0.26771089"
       id="rect842"
       width="115.05953"
       height="7.6171818"
       x="58.686256"
       y="25.72143"
       ry="0.93544334" />
  </g>
</svg>
